<?xml version="1.0" standalone="no"?>
<!DOCTYPE svg PUBLIC "-//W3C//DTD SVG 20010904//EN"
 "http://www.w3.org/TR/2001/REC-SVG-20010904/DTD/svg10.dtd">
<svg version="1.0" xmlns="http://www.w3.org/2000/svg"
 width="140.000000pt" height="140.000000pt" viewBox="0 0 140.000000 140.000000"
 preserveAspectRatio="xMidYMid meet">
<metadata>
Created by potrace 1.11, written by Peter Selinger 2001-2013
</metadata>
<g transform="translate(0.000000,140.000000) scale(0.100000,-0.100000)"
fill="#000000" stroke="none">
<path d="M452 1311 c-10 -6 -17 -40 -27 -127 -2 -21 -7 -50 -10 -64 -3 -14 -8
-41 -11 -60 -2 -19 -6 -46 -8 -60 -3 -14 -7 -45 -11 -70 -8 -61 -22 -135 -25
-135 0 0 -3 -29 -6 -65 -2 -36 -8 -66 -12 -68 -5 -1 -7 -18 -6 -37 2 -19 0
-35 -4 -35 -4 0 -8 -17 -9 -38 -2 -39 -6 -73 -24 -185 -13 -79 -14 -78 71
-124 158 -86 197 -108 221 -124 14 -10 29 -16 33 -12 3 3 6 1 6 -5 0 -7 7 -12
15 -12 8 0 15 -4 15 -10 0 -5 9 -10 19 -10 11 0 21 -5 23 -12 10 -28 75 -10
188 52 63 35 117 67 120 71 3 4 18 11 33 14 15 4 27 11 27 17 0 5 4 7 9 4 5
-4 11 -3 13 1 4 10 76 52 101 60 15 5 17 14 13 57 -2 28 -5 51 -6 51 -2 0 -7
24 -13 75 -3 25 -11 69 -16 98 -6 29 -10 56 -9 60 1 4 -1 21 -5 37 -8 38 -20
115 -21 138 0 9 -3 17 -6 17 -3 0 -5 12 -4 28 1 15 -1 32 -5 37 -3 6 -6 19 -7
30 -2 23 -12 89 -20 126 -3 17 -11 26 -22 25 -26 -2 -63 -26 -57 -37 4 -5 1
-9 -4 -9 -6 0 -35 -24 -64 -54 -48 -50 -54 -53 -62 -35 -44 88 -81 155 -87
157 -5 2 -8 12 -8 22 0 10 -10 25 -23 33 -22 14 -25 14 -40 -6 -9 -12 -15 -25
-14 -28 1 -4 -7 -16 -17 -28 -11 -12 -15 -21 -11 -21 4 0 0 -9 -10 -20 -18
-19 -18 -19 -36 13 -10 17 -33 59 -49 92 -89 172 -107 195 -138 176z"/>
</g>
</svg>
