<?xml version="1.0" standalone="no"?>
<!DOCTYPE svg PUBLIC "-//W3C//DTD SVG 20010904//EN"
 "http://www.w3.org/TR/2001/REC-SVG-20010904/DTD/svg10.dtd">
<svg version="1.0" xmlns="http://www.w3.org/2000/svg"
 width="385.000000pt" height="378.000000pt" viewBox="0 0 385.000000 378.000000"
 preserveAspectRatio="xMidYMid meet">

<g transform="translate(0.000000,378.000000) scale(0.100000,-0.100000)"
fill="#000000" stroke="none">
<path d="M1120 3773 c-221 -17 -443 -99 -608 -222 -174 -132 -318 -337 -407
-581 -40 -111 -103 -328 -97 -335 8 -8 135 -6 148 3 6 4 22 27 34 52 56 110
146 220 244 297 90 70 247 147 356 173 84 21 290 39 290 26 0 -60 -114 -1431
-126 -1506 -33 -219 -102 -463 -174 -615 -22 -46 -93 -153 -165 -250 -197
-266 -249 -399 -212 -542 9 -36 31 -84 47 -107 60 -81 180 -138 292 -139 223
-1 384 232 503 728 87 363 142 723 195 1270 14 155 90 1125 90 1160 0 3 212 5
470 5 l471 0 -6 -32 c-19 -112 -97 -873 -120 -1178 -22 -278 -31 -832 -16
-999 34 -379 101 -593 240 -758 121 -144 232 -203 397 -211 229 -10 450 96
593 284 123 162 242 489 277 762 l7 53 -78 -3 -78 -3 -14 -54 c-36 -142 -146
-288 -265 -351 -53 -29 -76 -35 -145 -38 -75 -4 -87 -2 -148 26 -165 78 -273
283 -321 610 -19 130 -22 481 -5 657 18 193 121 1167 127 1202 l5 33 457 2
457 3 3 293 2 292 -1337 -2 c-736 -1 -1358 -3 -1383 -5z m2700 -283 l0 -270
-454 0 c-309 0 -457 -3 -461 -11 -6 -9 -52 -417 -121 -1074 -34 -325 -38 -661
-11 -848 57 -380 203 -606 417 -645 170 -31 357 84 454 279 24 48 47 105 51
128 l7 41 59 0 60 0 -6 -37 c-87 -508 -259 -822 -521 -949 -300 -145 -571 -77
-753 189 -235 343 -260 1012 -95 2496 24 223 42 411 40 418 -4 10 -101 13
-485 13 -285 0 -482 -4 -486 -9 -3 -5 -21 -220 -40 -478 -81 -1083 -141 -1545
-262 -2018 -92 -362 -209 -574 -356 -644 -40 -19 -60 -23 -125 -20 -66 3 -90
10 -155 42 -65 32 -83 47 -112 90 -69 103 -67 232 6 375 21 43 82 136 135 207
177 236 216 311 287 545 32 103 76 306 92 415 7 55 115 1419 115 1462 l0 35
-87 -7 c-266 -21 -449 -91 -627 -239 -62 -52 -165 -181 -206 -257 l-31 -59
-60 0 c-53 0 -60 2 -55 18 3 9 19 63 36 119 178 602 519 910 1055 952 55 5
684 9 1398 10 l1297 1 0 -270z"/>
</g>
</svg>
