<?xml version="1.0" standalone="no"?>
<!DOCTYPE svg PUBLIC "-//W3C//DTD SVG 20010904//EN"
 "http://www.w3.org/TR/2001/REC-SVG-20010904/DTD/svg10.dtd">
<svg version="1.0" xmlns="http://www.w3.org/2000/svg"
 width="1050.000000pt" height="1050.000000pt" viewBox="0 0 1050.000000 1050.000000"
 preserveAspectRatio="xMidYMid meet">
<metadata>
Created by potrace 1.11, written by Peter Selinger 2001-2013
</metadata>
<g transform="translate(0.000000,1050.000000) scale(0.100000,-0.100000)"
fill="#000000" stroke="none">
<path d="M8493 7099 c-5 -5 -23 -11 -39 -13 -16 -2 -29 -5 -29 -6 0 -1 -11 -4
-25 -6 -13 -2 -28 -10 -32 -17 -6 -9 -8 -9 -8 2 0 10 -3 11 -13 2 -8 -6 -17
-8 -20 -4 -4 3 -7 2 -7 -4 0 -6 -9 -9 -20 -6 -11 3 -27 0 -35 -7 -8 -6 -19 -9
-25 -5 -5 3 -10 2 -10 -3 0 -6 -9 -8 -20 -5 -11 3 -20 1 -20 -5 0 -5 -13 -9
-29 -8 -17 1 -27 -2 -24 -8 4 -5 -1 -7 -10 -3 -9 3 -19 2 -22 -4 -4 -5 -11 -7
-16 -4 -5 4 -9 1 -9 -5 0 -8 -6 -7 -21 1 -16 8 -20 8 -14 -1 5 -8 1 -11 -11
-9 -11 2 -29 -2 -40 -9 -12 -6 -24 -9 -27 -5 -4 3 -13 0 -22 -7 -8 -7 -15 -10
-15 -8 0 3 -42 -6 -92 -19 -51 -13 -102 -25 -113 -26 -11 -1 -22 -5 -25 -9 -3
-4 -23 -9 -45 -11 -27 -3 -39 -9 -37 -18 3 -11 1 -11 -9 -2 -9 9 -16 10 -26 2
-7 -7 -13 -8 -13 -4 0 4 -8 1 -17 -6 -15 -12 -16 -12 -8 1 7 12 6 13 -6 3 -9
-7 -30 -14 -47 -16 -18 -2 -35 -7 -39 -10 -3 -4 -16 -7 -28 -7 -12 0 -25 -3
-28 -7 -4 -3 -21 -8 -39 -10 -17 -2 -37 -8 -45 -15 -7 -6 -16 -8 -19 -5 -4 3
-14 -1 -22 -10 -23 -23 -43 -63 -31 -63 5 0 9 -6 8 -12 -3 -24 1 -41 8 -35 3
4 11 0 17 -8 6 -9 27 -18 46 -20 19 -3 51 -8 70 -11 19 -3 60 -7 90 -8 30 -2
62 -6 70 -9 16 -6 38 -7 83 -7 15 0 37 -5 49 -11 16 -8 19 -8 13 1 -6 9 -3 9
12 2 11 -6 56 -12 100 -14 45 -2 79 -7 76 -11 -3 -5 1 -8 8 -6 46 6 129 -2
123 -12 -4 -8 0 -8 15 0 14 8 21 8 21 1 0 -5 5 -10 11 -10 5 0 7 6 3 13 -6 9
-4 9 7 1 8 -7 37 -13 64 -14 74 -2 75 -2 75 -14 0 -6 5 -4 10 4 6 10 10 11 10
3 0 -7 5 -13 11 -13 5 0 7 6 3 13 -6 9 -5 9 8 -1 8 -7 33 -11 56 -9 28 2 43
-1 46 -10 4 -10 11 -11 25 -3 13 7 22 7 26 0 3 -5 11 -10 16 -10 6 0 7 5 3 12
-5 7 -3 8 6 3 7 -4 33 -10 59 -12 25 -2 50 -8 55 -13 6 -6 14 -5 23 1 7 7 13
7 13 2 0 -5 21 -9 48 -8 26 1 50 -4 54 -9 5 -7 8 -6 8 2 0 7 5 10 10 7 6 -4 8
-12 4 -18 -3 -7 1 -4 9 5 10 13 16 15 25 6 9 -9 12 -9 12 -1 0 6 8 10 17 9 9
-2 28 3 41 10 14 7 30 10 37 8 7 -3 16 0 20 5 3 6 10 9 15 6 5 -3 11 -1 15 4
3 6 12 8 20 4 9 -3 22 0 30 7 9 7 18 10 22 7 3 -4 12 -2 20 4 7 6 13 8 13 4 0
-4 8 -1 17 6 10 9 14 9 10 2 -5 -8 1 -8 20 2 21 11 30 12 42 2 11 -9 13 -9 8
0 -5 7 3 14 20 17 16 4 38 9 51 11 12 3 32 8 45 11 12 3 28 6 35 6 6 1 12 5
12 9 0 4 8 6 18 4 9 -1 24 1 33 6 8 4 29 10 45 13 16 2 31 5 34 6 3 1 8 2 13
1 4 0 7 4 7 10 0 5 4 8 8 5 4 -3 26 0 48 5 21 6 47 10 57 10 9 0 15 4 12 9 -3
6 1 7 10 4 8 -4 22 -1 30 6 8 6 19 9 25 5 5 -3 10 -2 10 3 0 9 7 10 55 13 14
1 25 6 25 12 0 6 3 7 7 4 3 -4 12 -2 20 4 10 9 13 8 13 -1 0 -9 3 -10 13 -1 8
6 17 8 20 4 4 -3 7 -1 7 5 0 6 8 10 18 10 9 0 26 3 36 7 15 7 18 5 12 -6 -6
-11 -4 -10 6 1 15 17 38 24 39 12 5 -40 3 -85 -4 -89 -4 -2 -3 -11 3 -18 7 -9
8 -15 1 -19 -7 -5 -7 -15 -1 -31 7 -17 6 -25 -1 -25 -7 0 -8 -5 -3 -12 8 -12
10 -33 4 -48 -7 -18 -5 -50 3 -50 5 0 4 -7 -3 -15 -7 -8 -8 -15 -3 -15 10 0
11 -36 1 -46 -4 -3 -3 -17 2 -30 7 -16 6 -24 -1 -24 -8 0 -8 -4 -1 -13 8 -9 7
-20 -2 -39 -8 -15 -13 -28 -13 -30 1 -2 0 -2 -1 -1 -2 1 -31 -26 -63 -60 -84
-88 -96 -101 -80 -92 11 6 13 4 8 -8 -3 -9 -2 -19 3 -22 5 -3 7 -14 5 -24 -2
-11 3 -22 11 -25 9 -3 12 -10 9 -16 -3 -5 -1 -10 4 -10 6 0 11 -9 11 -20 0
-11 5 -20 10 -20 6 0 10 -9 10 -20 0 -11 5 -20 10 -20 6 0 10 -9 10 -20 0 -11
5 -20 10 -20 6 0 10 -9 10 -20 0 -11 5 -20 10 -20 6 0 10 -9 10 -20 0 -11 4
-20 9 -20 7 0 15 -18 20 -45 2 -12 37 -41 44 -38 4 2 7 0 7 -4 0 -19 49 -11
73 11 14 13 29 21 32 18 3 -4 3 1 -1 11 -3 10 -1 17 6 17 6 0 8 5 5 10 -3 6
-1 10 5 10 6 0 8 5 5 10 -3 6 -1 10 5 10 6 0 8 5 5 10 -3 6 -1 10 5 10 6 0 9
4 5 9 -3 5 -1 12 5 16 6 4 8 10 5 15 -3 4 2 10 10 14 8 3 15 15 15 26 0 11 5
20 12 20 6 0 8 3 5 6 -7 7 21 64 36 75 5 3 9 10 9 15 0 5 4 19 9 32 16 42 10
61 -38 109 -26 26 -41 43 -33 39 8 -4 6 0 -4 8 -11 9 -23 16 -28 16 -4 0 -8 6
-8 13 0 7 -8 17 -18 23 -16 10 -17 36 -17 328 0 257 -2 315 -13 311 -7 -3 -11
-1 -7 4 9 15 -23 40 -45 36 -11 -2 -20 -1 -20 3 0 4 -19 7 -43 8 -84 2 -138 8
-143 16 -3 4 -14 3 -25 -2 -11 -7 -19 -7 -19 -1 0 5 -11 8 -25 6 -14 -1 -27 1
-30 5 -2 4 -21 6 -42 5 -21 -1 -48 2 -60 6 -13 5 -25 4 -29 -2 -4 -6 -11 -6
-20 2 -8 6 -25 9 -39 7 -14 -3 -28 -2 -30 2 -3 5 -16 7 -30 5 -14 -1 -28 2
-31 6 -3 5 -14 5 -24 -1 -13 -7 -20 -6 -23 3 -4 9 -8 9 -15 -2 -7 -10 -11 -10
-14 -1 -2 8 -27 14 -63 15 -33 2 -67 5 -75 8 -16 6 -17 6 -97 10 -29 1 -53 4
-53 7 0 3 -9 6 -20 7 -13 1 -18 -2 -13 -10 4 -8 1 -7 -9 1 -9 7 -42 14 -73 14
-31 1 -58 5 -61 10 -8 13 -26 9 -18 -4 6 -10 4 -10 -7 0 -16 15 -33 16 -23 1
3 -6 -5 -4 -19 5 -20 13 -26 14 -30 4 -4 -11 -6 -11 -6 0 -1 7 -6 10 -11 7 -6
-4 -17 -2 -25 5 -10 8 -15 8 -20 -1 -6 -8 -10 -7 -16 2 -7 12 -9 12 -9 0 0
-11 -3 -11 -15 -1 -12 10 -15 10 -15 -1 0 -10 -3 -10 -8 -3 -9 15 -102 15
-102 0 0 -7 -3 -6 -8 1 -6 9 -11 10 -19 2z"/>
<path d="M9532 6538 c-10 -10 -37 -17 -79 -20 -7 -1 -13 -5 -13 -9 0 -4 -9 -6
-20 -4 -11 2 -20 0 -20 -5 0 -5 -9 -7 -20 -5 -11 2 -20 1 -20 -3 0 -4 -8 -9
-17 -10 -67 -7 -80 -10 -100 -20 -12 -7 -29 -9 -39 -5 -11 4 -15 3 -10 -5 4
-6 -2 -11 -14 -11 -11 -1 -29 -1 -40 -2 -11 0 -22 -5 -25 -10 -4 -5 -11 -7
-16 -4 -5 4 -9 1 -9 -5 0 -8 -6 -7 -21 1 -15 8 -19 8 -15 0 6 -9 -17 -17 -27
-8 -2 1 -16 -6 -31 -17 -16 -10 -25 -13 -22 -7 4 6 2 11 -3 11 -6 0 -11 -4
-11 -10 0 -5 -6 -7 -14 -4 -8 3 -17 0 -21 -6 -5 -8 -11 -7 -23 2 -12 10 -14
10 -8 1 4 -8 2 -13 -6 -14 -7 0 -22 -3 -33 -5 -11 -3 -26 -6 -32 -6 -7 -1 -13
-5 -13 -9 0 -4 -8 -6 -17 -4 -10 1 -24 -3 -32 -9 -12 -9 -13 -8 -6 4 7 12 6
13 -6 3 -12 -10 -18 -10 -29 0 -10 9 -11 9 -6 0 9 -16 -10 -17 -19 -3 -5 8
-11 8 -19 1 -7 -6 -16 -8 -20 -4 -4 4 -28 9 -54 10 -26 2 -54 6 -62 9 -8 4
-51 8 -95 10 -91 4 -127 8 -140 15 -6 3 -29 5 -52 5 -24 -1 -43 1 -43 4 0 6
-22 8 -117 12 -35 2 -63 8 -63 13 0 6 -5 3 -10 -5 -7 -11 -10 -11 -10 -2 0 7
-4 11 -9 7 -5 -3 -13 -1 -16 5 -5 8 -11 8 -20 0 -7 -6 -15 -7 -18 -3 -3 5 -28
8 -55 8 -28 0 -48 3 -46 7 2 3 0 9 -6 13 -5 3 -10 -1 -10 -11 0 -12 -3 -14
-12 -6 -7 5 -24 9 -38 8 -14 -1 -33 1 -42 6 -10 5 -20 3 -24 -4 -5 -7 -8 -108
-9 -225 0 -117 -3 -213 -7 -213 -12 0 -48 -38 -48 -50 0 -6 -5 -9 -12 -8 -7 2
-13 -1 -13 -7 -2 -22 -17 -55 -25 -55 -4 0 -7 -8 -6 -17 2 -10 -2 -21 -7 -25
-9 -6 -13 -17 -19 -65 -1 -7 -4 -13 -7 -13 -3 0 -6 -52 -7 -115 0 -63 3 -115
7 -115 3 0 5 -13 4 -30 -1 -17 2 -27 7 -24 5 3 8 0 7 -7 -3 -22 28 -98 46
-111 5 -4 6 -8 2 -8 -4 0 3 -11 17 -24 15 -13 26 -28 26 -34 0 -7 7 -9 17 -5
9 4 14 2 10 -3 -3 -6 3 -16 15 -23 16 -10 19 -10 13 1 -6 10 -5 11 6 1 7 -7
22 -13 32 -13 14 0 18 -5 15 -18 -3 -12 2 -24 14 -31 15 -9 17 -15 9 -25 -9
-10 -8 -15 2 -19 11 -4 27 -47 26 -72 0 -3 8 -13 16 -22 9 -9 14 -24 12 -34
-3 -10 0 -17 7 -16 6 1 10 -4 8 -10 -1 -7 2 -13 8 -13 5 0 10 -9 10 -21 0 -11
4 -18 8 -15 5 3 15 -10 22 -29 8 -19 16 -35 19 -35 3 0 17 -18 31 -40 13 -22
28 -40 32 -40 4 0 8 -7 8 -16 0 -8 5 -12 10 -9 6 3 10 1 10 -4 0 -15 43 -57
54 -53 5 2 3 -4 -4 -13 -11 -13 -10 -15 2 -10 9 4 18 -1 22 -10 3 -9 10 -13
16 -10 6 3 10 -4 10 -17 0 -17 3 -19 9 -9 7 10 11 9 22 -5 8 -11 26 -25 41
-33 15 -8 25 -18 22 -23 -3 -4 2 -8 10 -8 8 0 22 -7 30 -16 9 -8 16 -13 16 -9
0 3 10 -1 23 -10 13 -8 27 -12 30 -8 4 3 7 -2 8 -13 0 -10 3 -13 6 -7 3 10 10
9 26 -1 12 -8 33 -16 47 -18 14 -2 28 -7 32 -13 4 -5 25 -10 47 -10 22 0 43
-4 46 -7 4 -4 18 -4 32 -2 17 3 22 1 17 -7 -5 -8 -2 -9 11 -1 11 5 30 6 46 2
23 -7 27 -6 21 8 -5 15 -3 15 11 4 9 -8 21 -10 28 -6 6 3 29 7 51 8 22 1 43 8
48 16 8 12 10 12 10 1 0 -10 6 -10 26 4 15 9 23 12 20 6 -4 -6 -3 -11 2 -11 6
0 12 7 16 15 3 8 9 14 13 13 16 -3 63 14 63 24 0 5 4 7 9 3 5 -3 12 -1 16 5 4
6 10 8 15 5 4 -3 11 2 14 11 4 9 13 14 22 10 8 -3 13 -2 11 2 -3 4 1 13 9 20
8 7 14 10 14 7 0 -4 7 1 16 9 8 9 20 14 25 10 5 -3 8 -2 7 3 -3 8 38 53 44 49
2 -2 22 17 45 41 23 23 40 43 38 43 -2 0 7 12 20 26 14 15 22 30 19 35 -3 5 1
6 9 3 12 -4 24 16 25 42 1 3 10 14 21 23 11 10 18 21 14 25 -3 3 0 6 7 6 7 0
10 3 7 7 -4 3 1 12 11 20 10 9 11 11 2 7 -13 -7 -13 -5 -1 9 7 9 17 14 22 11
5 -3 6 1 3 9 -3 8 0 18 5 22 6 3 9 11 6 16 -4 5 -1 9 5 9 6 0 8 5 5 10 -3 6
-1 10 5 10 7 0 10 7 6 15 -3 8 2 21 10 30 8 8 12 19 9 25 -3 5 -3 10 2 10 14
0 33 50 20 50 -7 0 -3 7 7 15 11 8 16 15 11 15 -4 0 0 9 9 19 10 11 24 17 32
14 8 -3 14 0 14 7 0 7 7 10 15 6 9 -3 15 0 15 9 0 8 4 14 8 12 10 -3 66 56 70
74 2 8 10 19 18 26 10 7 12 13 4 18 -5 3 -7 11 -4 17 4 6 10 5 16 -3 7 -10 8
-9 4 5 -4 10 -2 24 3 30 5 6 11 30 14 54 2 23 7 46 11 49 3 3 1 12 -5 20 -9
10 -8 13 0 13 8 0 9 5 2 17 -5 10 -5 26 -1 39 5 12 6 24 3 27 -3 4 -7 32 -9
64 -2 32 -8 59 -14 61 -5 2 -7 8 -4 13 3 6 0 17 -8 26 -9 12 -9 15 0 9 18 -11
15 -2 -13 30 -18 20 -21 30 -12 36 8 5 6 8 -6 8 -10 0 -16 4 -12 9 3 5 -4 13
-16 16 -15 5 -18 10 -10 15 8 4 2 11 -18 20 l-31 12 0 268 c0 210 -3 270 -13
279 -10 8 -17 7 -25 -1z m-1600 -422 c16 -3 31 -7 35 -7 5 0 13 -5 20 -11 7
-5 17 -7 22 -4 5 4 13 1 16 -5 4 -5 14 -8 23 -4 8 3 19 0 24 -7 6 -11 8 -10 8
0 0 10 3 10 15 -1 8 -9 24 -13 36 -10 16 5 20 3 14 -6 -6 -10 -3 -11 14 -2 16
9 21 9 21 0 0 -6 7 -9 15 -5 8 3 15 0 15 -7 0 -9 2 -9 8 0 5 7 13 9 21 3 8 -4
20 -6 28 -3 7 3 19 0 27 -6 7 -6 16 -8 20 -4 3 4 14 8 22 9 11 2 14 -3 9 -14
-5 -13 -3 -14 6 -5 6 6 18 9 27 6 9 -4 13 -2 9 4 -3 5 0 10 8 10 8 0 12 -4 9
-9 -3 -4 12 -8 33 -8 102 -1 113 -3 106 -14 -4 -6 1 -5 10 3 14 11 20 11 34 0
13 -11 15 -11 9 -1 -6 10 -2 13 15 10 13 -2 27 -7 31 -13 5 -6 8 -6 8 1 0 6
11 12 25 12 16 0 22 -5 18 -12 -4 -6 1 -5 10 3 14 11 20 11 34 0 9 -8 14 -9
10 -3 -4 7 10 11 40 13 25 0 49 4 54 7 5 3 9 -1 9 -8 0 -10 2 -10 8 -1 5 7 19
10 36 7 19 -3 25 -1 21 7 -6 8 -2 8 13 0 15 -8 23 -8 28 0 4 8 9 7 15 -2 5 -8
9 -9 9 -3 0 6 16 10 35 9 19 -1 35 2 35 7 0 5 5 6 10 3 6 -3 15 -3 22 1 6 4
37 9 67 11 31 2 58 7 61 11 3 4 12 7 20 7 8 -1 20 1 25 4 6 3 15 6 20 8 6 1
20 4 32 7 12 2 31 10 42 16 12 6 21 8 21 5 0 -3 9 -1 19 4 14 8 22 7 31 -4 8
-9 8 -15 2 -15 -13 0 -11 -82 3 -92 6 -4 2 -8 -9 -8 -15 0 -16 -3 -6 -15 10
-12 9 -15 -6 -16 -18 0 -18 -1 1 -9 11 -5 15 -9 9 -9 -13 -1 -15 -31 -2 -31 5
0 6 -9 3 -20 -4 -14 -2 -20 7 -18 7 2 12 -3 10 -11 -2 -11 0 -12 11 -2 12 9
16 8 21 -4 3 -9 11 -13 17 -10 11 8 49 -27 49 -45 0 -5 5 -10 10 -10 6 0 10
-5 10 -11 0 -5 -6 -7 -12 -3 -10 6 -10 4 -2 -7 19 -26 35 -71 23 -63 -9 5 -9
3 -3 -7 13 -20 13 -153 0 -161 -7 -5 -6 -8 3 -8 11 0 11 -3 1 -15 -6 -8 -9
-19 -5 -25 3 -5 2 -10 -4 -10 -5 0 -8 -9 -6 -20 3 -13 0 -18 -7 -14 -7 5 -9 1
-5 -9 4 -11 1 -17 -9 -17 -8 0 -13 -4 -10 -9 3 -5 -2 -15 -11 -22 -9 -8 -14
-9 -10 -3 9 16 -66 13 -85 -3 -8 -7 -18 -10 -21 -6 -4 3 -7 -1 -7 -11 0 -9 -3
-15 -7 -13 -5 3 -8 -9 -8 -26 1 -18 -3 -34 -7 -37 -4 -3 -9 -18 -12 -34 -3
-16 -9 -32 -14 -35 -5 -3 -8 -14 -6 -23 1 -10 -2 -18 -7 -18 -6 0 -7 -4 -4
-10 3 -5 2 -10 -4 -10 -5 0 -8 -9 -6 -20 2 -11 0 -18 -6 -15 -5 4 -9 -3 -9
-14 0 -10 -5 -21 -10 -23 -6 -2 -12 -13 -13 -26 0 -12 -5 -22 -10 -22 -4 0 -5
-5 -1 -12 5 -7 2 -9 -8 -5 -12 4 -15 0 -13 -18 1 -14 -2 -22 -7 -19 -5 3 -13
-8 -19 -25 -6 -17 -14 -29 -18 -27 -4 3 -13 -9 -20 -25 -7 -16 -17 -26 -24
-22 -6 4 -8 0 -4 -9 4 -11 -1 -18 -15 -21 -11 -3 -17 -10 -14 -16 4 -5 -3 -12
-14 -16 -11 -3 -19 -12 -17 -18 1 -7 -4 -11 -10 -9 -7 1 -13 -3 -13 -9 0 -5
-5 -7 -12 -3 -6 4 -8 3 -4 -4 3 -6 -8 -21 -26 -33 -18 -13 -35 -26 -38 -30 -8
-10 -94 -53 -102 -51 -5 1 -8 -2 -8 -8 0 -5 -8 -10 -18 -10 -10 0 -22 -3 -26
-7 -4 -4 -19 -9 -34 -11 -15 -2 -29 -7 -32 -11 -3 -3 -33 -7 -66 -8 -34 0 -67
-3 -73 -7 -6 -4 -11 -3 -11 1 0 5 -18 8 -40 7 -22 0 -40 2 -40 5 0 4 -12 8
-26 9 -15 1 -34 8 -42 15 -11 8 -14 8 -9 0 4 -6 -10 -3 -30 7 -21 10 -41 16
-46 13 -4 -2 -6 1 -5 9 2 8 -6 13 -19 12 -12 -1 -21 4 -20 10 1 6 -6 10 -15
10 -10 -1 -15 2 -12 7 3 5 -3 12 -13 16 -10 4 -25 15 -34 25 -9 10 -21 18 -27
18 -5 0 -13 7 -16 16 -3 8 -10 12 -16 9 -5 -3 -10 0 -10 8 0 7 -10 23 -22 34
-13 11 -29 29 -36 39 -7 10 -10 13 -6 5 5 -9 3 -12 -5 -7 -6 4 -9 11 -6 15 2
5 -7 20 -21 34 -15 15 -23 31 -18 38 4 7 3 9 -4 5 -10 -6 -28 30 -24 47 1 5
-2 6 -8 2 -5 -3 -10 -1 -10 4 0 20 -3 26 -19 38 -9 7 -12 13 -7 13 4 0 -4 17
-20 37 -15 20 -22 33 -16 29 17 -10 15 9 -3 24 -8 7 -15 23 -15 36 0 13 -5 24
-11 24 -5 0 -7 5 -4 10 4 6 1 18 -7 27 -11 14 -11 16 2 8 10 -5 9 -1 -3 13
-11 11 -16 25 -13 31 4 5 2 12 -4 16 -6 4 -8 10 -6 14 7 11 -31 51 -49 52 -8
1 -21 2 -27 3 -7 1 -19 -2 -25 -7 -9 -6 -13 -5 -13 4 0 11 -2 11 -10 -1 -9
-13 -10 -13 -11 0 -1 8 -1 18 0 23 0 4 -5 6 -11 5 -7 -2 -12 3 -10 10 1 6 -2
12 -6 12 -4 0 -9 12 -10 27 -1 15 -6 30 -12 33 -5 3 -5 11 0 20 5 9 5 19 -1
26 -16 20 -13 188 3 178 5 -3 7 6 4 20 -4 20 0 26 12 26 12 0 14 3 4 8 -9 6
-6 14 10 32 13 14 22 27 20 29 -2 5 15 9 50 13 9 1 15 4 13 7 -3 2 5 11 16 19
17 12 18 16 8 23 -11 7 -9 9 6 9 17 0 17 2 5 10 -12 8 -12 10 -1 10 10 0 11 3
2 13 -8 10 -7 17 1 25 8 8 7 13 -5 18 -13 5 -14 10 -6 26 8 16 8 19 -1 13 -9
-6 -9 -3 -2 12 6 11 7 25 2 33 -12 19 -1 40 17 33 12 -5 14 -3 8 8 -7 11 -6
12 6 3 8 -6 26 -14 41 -18z"/>
<path d="M8235 5712 c-25 -5 -43 -19 -57 -45 -7 -14 -7 -18 2 -12 8 5 7 0 -2
-15 -10 -18 -10 -24 0 -27 6 -3 10 -9 6 -14 -3 -5 0 -9 6 -9 6 0 9 -4 6 -9 -8
-12 12 -18 47 -17 15 1 27 -1 27 -5 0 -9 21 -6 38 4 7 5 12 3 12 -3 0 -6 5 -8
13 -3 6 4 30 8 52 9 69 2 73 3 88 33 11 22 12 32 3 42 -7 8 -7 10 0 6 6 -3 11
0 11 8 0 8 -4 12 -8 9 -4 -2 -10 5 -14 16 -4 11 -10 18 -15 15 -5 -3 -10 0
-12 7 -4 12 -156 19 -203 10z"/>
<path d="M8849 5711 c-7 -2 -22 -13 -35 -24 -20 -17 -21 -23 -11 -36 7 -9 8
-12 1 -8 -7 4 -11 -2 -11 -18 0 -14 3 -22 8 -19 5 3 9 0 9 -6 0 -18 29 -42 41
-34 6 3 15 1 19 -6 5 -8 13 -9 21 -4 16 10 91 12 99 3 3 -3 24 -1 47 3 32 7
45 16 56 38 11 21 12 30 3 34 -7 3 -7 5 2 5 10 1 10 5 0 23 -25 44 -47 52
-145 53 -51 0 -98 -2 -104 -4z"/>
<path d="M1034 6399 c-2 -4 -15 -6 -29 -4 -14 1 -25 -1 -25 -5 0 -4 -10 -6
-22 -5 -13 1 -27 0 -33 -4 -5 -3 -14 -6 -20 -7 -9 -2 -58 -12 -80 -17 -5 -2
-16 -6 -22 -10 -7 -5 -13 -5 -13 -1 0 3 -7 1 -15 -6 -8 -7 -15 -9 -15 -5 0 5
-10 0 -22 -11 -12 -10 -18 -13 -14 -6 4 6 -13 1 -38 -12 -25 -14 -46 -21 -46
-18 0 4 -4 2 -8 -3 -4 -6 -24 -19 -44 -30 -21 -11 -38 -23 -38 -28 0 -4 -4 -6
-9 -3 -4 3 -25 -9 -46 -27 -21 -17 -43 -32 -49 -32 -6 -1 -10 -6 -9 -13 2 -6
-9 -15 -23 -18 -13 -4 -23 -9 -20 -11 7 -7 -20 -33 -34 -33 -6 0 -8 -4 -5 -10
3 -5 1 -10 -5 -10 -6 0 -18 -7 -26 -15 -9 -8 -13 -15 -9 -15 3 0 0 -6 -7 -14
-7 -8 -16 -12 -20 -9 -5 2 -8 -3 -8 -12 0 -9 -4 -13 -10 -10 -6 3 -10 -1 -10
-9 0 -9 -5 -16 -12 -16 -6 0 -8 -3 -5 -7 4 -3 -4 -16 -18 -28 -13 -13 -21 -26
-18 -29 4 -3 2 -6 -4 -6 -9 0 -30 -36 -31 -54 0 -5 -7 -13 -16 -18 -9 -5 -14
-13 -11 -19 4 -5 1 -9 -5 -9 -6 0 -8 -5 -5 -10 3 -6 -1 -13 -9 -16 -9 -3 -14
-10 -11 -14 3 -5 -2 -16 -11 -24 -8 -9 -12 -16 -8 -16 3 0 0 -7 -7 -17 -8 -9
-13 -19 -12 -22 4 -12 -9 -51 -18 -51 -5 0 -6 -7 -2 -16 4 -11 -1 -22 -12 -30
-12 -9 -14 -14 -6 -14 11 0 11 -3 1 -15 -6 -8 -9 -19 -5 -25 3 -5 2 -10 -2
-10 -5 0 -9 -8 -10 -17 0 -10 -4 -36 -8 -58 -8 -45 -9 -309 -1 -370 3 -22 8
-56 12 -75 4 -19 8 -45 8 -57 1 -11 4 -19 9 -16 6 4 11 -15 10 -44 -1 -7 3
-13 7 -13 4 0 12 -18 19 -40 6 -22 16 -40 21 -40 6 0 10 -5 10 -11 0 -5 -6 -7
-13 -3 -6 4 -1 -5 13 -21 14 -16 19 -25 12 -21 -7 4 -1 -9 13 -29 13 -21 22
-42 18 -48 -3 -6 -1 -7 5 -3 7 4 12 1 12 -8 0 -9 5 -16 12 -16 6 0 9 -3 6 -6
-3 -3 5 -17 18 -31 13 -14 21 -30 17 -36 -3 -6 -1 -7 5 -3 8 4 16 -3 22 -18 5
-14 14 -26 20 -26 6 0 9 -4 5 -9 -3 -5 4 -12 15 -16 11 -3 19 -9 17 -13 -1 -4
15 -24 35 -45 21 -21 38 -34 38 -30 0 4 8 -4 18 -20 10 -15 21 -24 25 -21 4 4
9 -1 13 -10 3 -9 12 -16 20 -16 8 0 14 -4 14 -10 0 -5 6 -10 13 -10 7 0 19 -9
27 -19 7 -11 17 -18 20 -16 9 6 71 -40 65 -47 -3 -3 5 -4 19 -3 14 2 27 -3 30
-12 3 -8 10 -11 16 -8 5 3 10 1 10 -6 0 -7 3 -10 6 -6 4 3 23 -2 43 -12 20
-10 44 -17 54 -16 9 2 15 -1 11 -6 -3 -5 6 -9 20 -9 14 0 26 -6 26 -12 0 -9 4
-8 10 2 7 12 10 12 10 1 0 -7 6 -11 15 -8 8 4 17 2 20 -3 3 -5 14 -7 25 -5 11
2 20 0 20 -5 0 -4 10 -8 23 -8 60 0 86 -6 80 -16 -4 -6 1 -5 10 3 14 11 17 11
17 0 0 -11 2 -11 10 1 8 12 10 12 10 1 0 -11 3 -11 15 -1 11 9 15 9 15 1 0 -7
5 -9 13 -4 16 10 38 10 60 0 11 -5 17 -4 17 5 0 9 3 9 10 -2 9 -13 10 -13 10
0 0 13 1 13 10 0 6 -10 10 -11 10 -2 0 14 21 12 32 -3 5 -6 8 -5 8 3 0 6 12
12 28 12 15 0 34 6 40 12 10 10 15 10 22 -1 6 -11 12 -12 22 -4 7 6 24 14 37
18 18 5 22 4 17 -6 -5 -9 -3 -9 6 1 13 15 31 22 56 23 6 0 12 4 12 8 0 4 13 6
29 5 16 -1 29 3 28 8 -1 6 8 11 20 10 12 0 20 3 17 8 -3 4 0 9 5 9 19 2 25 5
74 28 26 13 47 27 47 33 0 5 5 6 10 3 6 -3 13 1 16 9 3 9 10 13 15 10 5 -3 9
0 9 7 0 7 3 9 7 6 3 -4 17 5 30 19 12 14 23 22 23 18 0 -4 10 4 23 17 36 37
71 64 80 61 4 -1 7 2 7 8 0 5 15 25 33 44 68 74 85 95 79 100 -3 3 1 6 8 6 7
0 11 3 7 6 -3 3 5 16 18 29 14 12 22 25 18 28 -3 4 -1 7 6 7 7 0 9 5 6 10 -3
6 -1 10 4 10 6 0 11 7 11 15 0 8 4 15 8 15 4 0 16 23 27 50 11 28 23 50 27 50
4 0 7 3 6 8 -3 15 23 92 31 88 4 -3 7 5 6 17 -1 12 2 28 7 34 6 7 8 19 5 28
-4 8 -2 17 4 20 5 4 7 11 4 16 -4 5 -2 9 3 9 5 0 9 24 8 54 0 30 2 52 5 50 13
-8 19 30 7 38 -11 8 -11 10 0 15 10 4 10 8 0 21 -7 9 -8 13 -2 9 6 -4 10 10
10 38 0 24 -4 41 -9 38 -5 -3 -4 4 2 16 9 16 9 21 -1 21 -9 0 -9 3 2 10 8 5
10 10 3 10 -13 0 -12 18 1 39 6 10 5 12 -2 7 -8 -5 -12 5 -12 33 0 22 -4 42
-9 46 -6 3 -8 14 -6 25 2 11 0 22 -5 25 -4 3 -6 14 -3 24 3 10 0 22 -6 25 -5
4 -8 13 -5 20 3 8 0 17 -5 21 -6 3 -8 11 -5 17 4 6 1 14 -5 18 -7 4 -13 17
-14 28 -1 12 -5 22 -10 22 -5 0 -7 9 -4 20 3 11 1 18 -3 15 -5 -3 -11 -1 -15
5 -3 5 0 10 7 10 7 0 2 7 -10 16 -12 8 -20 19 -17 23 2 5 -6 25 -20 45 -14 20
-25 41 -25 46 0 6 -5 10 -11 10 -5 0 -8 4 -5 8 3 5 -3 14 -14 22 -10 7 -16 20
-12 29 3 9 2 13 -3 9 -10 -9 -35 16 -35 36 0 14 -12 20 -32 17 -5 0 -7 2 -7 7
3 20 -3 32 -17 32 -10 0 -14 5 -10 16 3 8 2 13 -2 10 -5 -3 -15 4 -22 15 -8
10 -18 19 -22 19 -14 0 -48 34 -48 48 0 7 -5 10 -10 7 -6 -3 -13 1 -16 9 -3 9
-10 14 -15 11 -4 -3 -13 4 -19 15 -6 11 -14 18 -19 16 -4 -3 -13 4 -21 14 -8
10 -17 17 -21 15 -4 -3 -12 2 -19 10 -7 8 -19 15 -26 15 -8 0 -14 5 -14 12 0
6 -3 8 -6 5 -4 -4 -20 3 -35 14 -16 11 -29 18 -29 15 0 -3 -16 3 -35 14 -20
11 -45 20 -56 20 -11 0 -18 4 -15 9 4 5 -5 8 -19 6 -14 -1 -25 2 -25 7 0 6 -6
8 -14 5 -7 -3 -19 0 -25 6 -6 6 -11 7 -11 3 0 -5 -12 -1 -26 9 -15 9 -23 11
-19 4 6 -8 4 -10 -6 -3 -8 4 -27 9 -44 10 -16 1 -30 3 -30 4 0 10 -275 18
-281 9z m42 -149 c5 1 15 6 22 12 8 8 12 7 13 -3 0 -11 2 -11 6 -1 4 10 8 10
19 1 11 -9 14 -9 14 1 0 10 3 10 14 1 10 -9 16 -9 21 -1 5 8 11 7 23 -2 13
-11 14 -11 7 2 -7 12 -6 13 6 4 8 -6 28 -10 44 -9 17 0 36 -4 44 -9 12 -9 13
-8 6 4 -8 13 -7 13 8 1 14 -11 17 -11 18 0 0 10 2 11 6 1 2 -6 9 -10 14 -6 5
3 9 0 9 -5 0 -6 10 -11 23 -11 13 0 29 -6 36 -12 11 -11 12 -10 6 2 -7 12 -6
13 7 3 8 -7 18 -10 21 -6 4 3 7 1 7 -5 0 -7 3 -11 8 -10 13 3 67 -15 73 -24 3
-5 16 -10 28 -13 12 -2 37 -13 55 -24 18 -12 37 -17 41 -13 5 4 5 1 1 -5 -4
-8 -1 -13 8 -13 8 0 20 -8 25 -17 6 -10 11 -14 11 -9 0 5 9 -1 20 -14 11 -13
20 -19 20 -15 0 4 14 -6 30 -23 17 -18 30 -29 30 -26 0 3 7 -1 15 -10 8 -8 15
-19 15 -25 0 -6 4 -10 9 -8 11 2 81 -70 74 -77 -3 -2 5 -9 16 -16 12 -6 21
-17 21 -25 0 -8 5 -15 10 -15 6 0 10 -9 10 -21 0 -11 5 -17 10 -14 5 3 10 1
10 -6 0 -7 8 -21 18 -32 12 -15 13 -19 2 -13 -9 4 -8 2 3 -7 9 -8 17 -22 17
-31 0 -9 4 -16 8 -16 10 0 33 -61 26 -71 -3 -5 2 -9 11 -9 12 0 15 -5 11 -16
-4 -9 -1 -22 4 -30 6 -7 12 -28 13 -47 1 -19 6 -32 11 -29 5 3 7 -5 4 -16 -4
-12 -2 -22 4 -22 5 0 8 -8 6 -17 -1 -10 1 -24 6 -32 7 -11 6 -12 -5 -6 -11 7
-12 6 -3 -6 6 -8 10 -24 9 -36 -1 -13 2 -23 7 -23 5 0 4 -9 -2 -19 -7 -14 -7
-22 0 -26 8 -5 8 -11 0 -20 -8 -10 -8 -15 0 -20 8 -5 8 -11 -1 -21 -9 -11 -9
-14 0 -14 9 0 9 -5 0 -21 -8 -15 -8 -19 0 -15 8 5 8 0 1 -18 -5 -14 -7 -26 -4
-26 4 0 0 -8 -7 -17 -10 -11 -10 -14 -1 -9 6 4 12 2 12 -3 0 -6 -4 -11 -8 -11
-5 0 -8 -19 -8 -41 1 -25 -4 -44 -11 -46 -7 -3 -11 -9 -8 -14 3 -4 -1 -24 -9
-44 -8 -19 -12 -35 -9 -35 3 0 0 -6 -6 -13 -6 -8 -8 -17 -4 -20 3 -4 1 -7 -6
-7 -7 0 -9 -4 -6 -10 3 -5 1 -10 -5 -10 -6 0 -9 -4 -5 -9 3 -5 1 -12 -5 -16
-6 -4 -8 -11 -5 -16 4 -5 -1 -12 -9 -15 -9 -3 -13 -10 -10 -15 3 -5 0 -9 -6
-9 -7 0 -10 -7 -6 -15 3 -8 1 -15 -4 -15 -5 0 -17 -16 -26 -35 -9 -19 -20 -35
-25 -35 -5 0 -9 -7 -9 -16 0 -9 -5 -12 -12 -8 -8 5 -9 2 -5 -9 4 -12 1 -17
-10 -17 -9 0 -14 -3 -10 -6 6 -6 -147 -164 -158 -164 -4 0 -19 -9 -35 -20 -15
-11 -31 -16 -35 -12 -5 4 -5 1 -1 -6 5 -9 1 -15 -13 -19 -12 -3 -21 -10 -21
-15 0 -5 -4 -7 -9 -4 -5 3 -14 -1 -21 -10 -7 -8 -19 -13 -27 -10 -8 3 -13 -2
-13 -12 0 -14 -2 -15 -10 -2 -8 12 -10 12 -16 -3 -3 -9 -10 -15 -14 -12 -5 3
-14 0 -22 -7 -7 -7 -22 -15 -33 -16 -11 -2 -22 -7 -25 -11 -3 -4 -12 -6 -20
-6 -8 0 -21 -6 -28 -15 -8 -8 -11 -9 -7 -2 4 7 0 12 -10 12 -9 0 -13 -5 -10
-10 4 -7 -3 -9 -19 -6 -14 3 -28 0 -32 -5 -4 -6 -11 -6 -20 2 -11 9 -15 8 -19
-2 -4 -10 -27 -14 -83 -14 -42 0 -85 -3 -94 -8 -10 -4 -20 -2 -24 4 -4 8 -9 7
-15 -2 -5 -8 -9 -9 -9 -4 0 6 -21 10 -46 10 -25 0 -48 3 -50 7 -3 4 -12 4 -21
1 -12 -5 -14 -3 -8 8 7 12 6 12 -7 1 -9 -7 -19 -9 -21 -5 -3 5 -20 10 -38 11
-18 1 -39 8 -46 14 -7 6 -13 7 -13 2 0 -4 -5 -3 -12 4 -7 7 -20 12 -30 12 -10
0 -21 7 -24 15 -5 12 -10 13 -19 5 -10 -8 -16 -7 -24 7 -6 10 -11 14 -11 9 0
-6 -7 -1 -16 10 -8 10 -12 12 -8 4 5 -10 0 -9 -14 4 -12 11 -22 15 -22 10 0
-5 -7 -1 -15 10 -7 10 -18 15 -24 11 -6 -3 -11 1 -11 10 0 9 -4 13 -10 10 -5
-3 -21 5 -35 19 -14 14 -28 26 -30 26 -3 0 -10 0 -16 0 -5 0 -7 5 -4 10 3 6 2
10 -3 10 -26 0 -187 181 -174 195 4 5 2 5 -5 1 -13 -7 -37 27 -26 38 3 3 -1 6
-11 6 -9 0 -15 4 -11 9 3 5 -2 17 -11 25 -8 9 -12 16 -7 16 4 0 2 4 -5 9 -7 4
-14 14 -15 22 -2 8 -7 21 -12 29 -5 8 -10 22 -12 30 -1 8 -7 16 -13 18 -5 2
-8 8 -5 13 3 5 0 19 -7 31 -7 13 -11 29 -9 37 1 8 -3 17 -9 21 -6 4 -12 21
-12 38 -1 18 -4 32 -7 32 -6 0 -14 80 -14 132 1 15 -3 26 -7 23 -11 -7 -7 29
5 38 6 4 5 10 -4 16 -9 6 -10 11 -2 15 6 4 11 13 11 19 0 7 -4 6 -11 -3 -10
-13 -10 -13 -6 0 3 8 9 24 13 34 4 12 4 17 -2 13 -5 -3 -10 3 -10 13 0 10 4
16 8 14 7 -5 12 70 6 79 -2 2 4 12 12 22 13 17 13 18 0 10 -12 -6 -13 -5 -2 6
6 7 12 23 12 36 0 13 4 23 9 23 6 0 8 9 6 20 -2 11 1 20 6 20 6 0 8 4 4 9 -3
5 -1 12 4 16 5 3 8 15 6 26 -3 15 0 19 11 15 11 -4 14 -1 9 13 -4 12 0 21 12
25 15 6 15 8 3 16 -12 8 -12 10 -1 10 7 0 11 6 7 15 -3 8 0 14 7 12 7 -1 11 4
10 11 -2 6 3 12 11 12 10 0 12 7 8 22 -4 16 -2 19 8 13 10 -6 12 -4 7 9 -4 9
-3 15 1 12 5 -3 16 8 26 25 9 16 22 29 27 29 6 0 8 4 4 9 -3 6 3 14 12 20 10
6 15 11 11 11 -4 0 7 14 25 31 17 17 31 36 29 41 -1 5 2 7 8 3 5 -3 10 -2 10
3 0 5 9 12 21 15 12 3 18 10 15 15 -3 6 7 16 23 23 16 7 27 17 25 21 -3 4 2 8
10 8 9 0 16 5 16 10 0 6 6 10 14 10 8 0 17 7 20 16 3 8 10 12 16 9 5 -3 10 -1
10 4 0 6 5 11 11 11 7 0 18 8 25 18 9 11 13 13 14 4 0 -10 4 -10 16 2 8 9 22
16 30 16 9 0 12 5 8 12 -5 8 -2 9 9 5 9 -3 23 0 31 8 7 8 17 11 20 7 4 -3 11
0 16 8 9 13 10 13 10 0 1 -11 4 -10 15 4 8 11 15 16 15 12 0 -5 7 -3 15 4 12
10 15 10 15 0 0 -9 7 -8 25 4 14 9 25 14 25 10 0 -4 6 -2 13 3 6 6 24 10 40 9
15 -1 27 1 27 5 0 3 11 5 25 4 14 -2 25 2 25 8 0 8 3 7 9 -1 4 -8 12 -13 17
-12z"/>
<path d="M1097 5722 c-4 -6 -13 -9 -20 -6 -9 3 -13 -6 -12 -28 0 -18 -3 -47
-6 -65 -4 -18 -3 -33 1 -35 4 -2 5 -24 0 -50 -4 -27 -4 -48 -1 -48 8 0 5 -206
-3 -226 -3 -8 -2 -14 3 -14 5 0 8 -14 7 -32 -1 -26 4 -33 24 -38 14 -4 33 -3
42 2 10 5 19 4 24 -3 4 -8 9 -7 15 2 7 11 9 11 9 1 0 -9 5 -10 18 -3 13 7 22
7 29 0 8 -8 13 -7 17 0 4 6 12 11 17 11 6 0 8 -3 6 -7 -3 -5 8 -8 23 -8 15 0
26 3 23 8 -5 9 11 9 21 0 9 -9 46 -11 40 -2 -6 10 38 5 55 -6 10 -5 12 -4 7 3
-4 7 -3 12 3 12 5 0 12 -6 14 -12 4 -10 6 -10 6 0 1 10 6 10 22 1 13 -7 19 -7
15 -1 -7 12 32 10 51 -1 6 -4 14 -3 18 3 3 5 11 10 16 10 6 0 8 -3 6 -7 -3 -5
8 -8 23 -8 15 0 26 3 23 8 -5 9 11 9 21 0 9 -9 46 -11 40 -2 -6 10 38 5 55 -6
10 -5 12 -4 7 3 -10 16 7 15 23 0 11 -11 12 -10 6 2 -8 13 -7 13 8 1 12 -9 17
-10 17 -2 0 7 5 9 13 5 6 -4 9 -4 5 1 -4 4 -3 17 3 28 8 14 8 18 0 13 -14 -9
-14 0 0 26 8 15 8 19 0 14 -14 -9 -14 0 -1 25 8 15 7 19 -5 19 -8 0 -15 4 -15
8 0 4 -9 8 -20 8 -11 0 -20 -3 -20 -7 0 -3 -20 -3 -45 1 -25 4 -48 3 -51 -2
-3 -4 -9 -6 -14 -3 -9 5 -124 9 -145 5 -5 -1 -14 -2 -19 -1 -13 3 -129 3 -141
1 -5 -1 -14 -2 -19 -1 -5 1 -34 3 -65 3 -67 1 -85 11 -68 39 9 14 9 21 -1 31
-9 9 -8 16 5 30 16 18 16 18 -1 12 -16 -6 -17 -4 -7 14 9 17 9 22 -1 22 -10 0
-10 2 0 9 8 4 14 12 14 16 0 4 -6 12 -14 16 -7 5 -8 9 -3 9 6 0 11 11 11 25 1
16 -2 22 -10 18 -7 -4 -7 -2 1 8 10 12 10 18 0 29 -9 10 -9 11 1 6 14 -9 17
10 2 19 -6 4 -7 12 -3 18 14 22 14 49 1 41 -9 -5 -9 -2 1 9 9 12 10 17 2 17
-7 0 -9 5 -5 12 5 7 3 8 -7 2 -20 -12 -39 -14 -39 -3 0 6 -8 6 -19 -1 -14 -7
-21 -6 -23 2 -3 9 -6 9 -11 0z"/>
<path d="M4071 5672 c-26 -3 -31 -6 -20 -13 8 -5 9 -9 2 -9 -8 0 -9 -9 -3 -30
6 -21 5 -30 -3 -30 -7 0 -6 -4 3 -10 8 -5 11 -10 5 -10 -14 0 -16 -52 -3 -67
6 -7 7 -13 2 -13 -10 0 -10 -72 0 -89 4 -6 2 -11 -3 -11 -6 0 -11 -5 -11 -11
0 -5 4 -8 9 -5 4 3 6 -6 3 -19 -4 -25 -5 -25 -43 15 -22 22 -39 37 -39 34 0
-4 -6 -1 -13 5 -8 6 -17 7 -21 3 -4 -4 -6 0 -4 8 2 10 -4 15 -19 14 -13 -1
-23 2 -23 7 0 5 -13 7 -30 5 -16 -2 -30 1 -30 7 0 5 -10 2 -22 -9 -12 -10 -18
-13 -13 -5 6 11 3 13 -11 9 -10 -3 -26 -7 -34 -9 -8 -2 -18 -8 -21 -12 -3 -5
-13 -9 -21 -11 -23 -3 -99 -88 -94 -103 3 -7 -1 -13 -9 -13 -9 0 -15 -10 -15
-26 0 -14 -3 -23 -7 -21 -5 3 -9 -13 -10 -35 -2 -23 -7 -46 -13 -53 -6 -8 -6
-15 2 -23 9 -9 9 -12 -2 -12 -13 0 -13 -2 -1 -9 8 -5 15 -24 16 -43 0 -18 6
-43 13 -54 6 -12 8 -25 4 -29 -4 -5 -1 -5 6 -1 6 4 12 2 12 -3 0 -24 69 -94
109 -110 17 -8 31 -16 31 -20 0 -4 8 -7 18 -7 9 0 28 -4 41 -8 16 -6 21 -5 17
3 -5 7 -1 9 8 5 9 -3 13 -11 10 -18 -3 -6 1 -3 9 6 10 13 16 15 25 6 9 -9 12
-9 12 1 0 7 6 11 15 8 8 -4 17 -2 20 4 4 5 10 7 15 4 4 -3 11 2 14 11 3 8 10
12 16 9 6 -3 13 1 16 9 3 9 12 16 20 16 7 0 20 12 28 28 8 15 16 25 16 22 1
-3 3 -14 5 -24 12 -65 21 -75 73 -81 19 -3 22 1 22 31 0 19 -7 46 -16 59 -9
14 -12 25 -6 25 6 0 6 16 2 40 -4 22 -4 40 0 40 4 0 4 18 0 40 -4 22 -4 40 1
40 5 0 5 10 0 22 -4 13 -5 35 0 50 5 19 4 28 -4 28 -7 0 -8 3 -1 10 5 5 7 40
4 80 -3 38 -3 70 0 70 3 0 3 27 0 60 -3 33 -3 60 0 60 3 0 3 29 0 65 -3 40 -2
67 5 69 5 2 4 5 -3 5 -7 1 -11 5 -8 10 8 12 -12 17 -53 13z m-217 -291 c3 -4
17 -7 31 -6 14 2 25 -1 25 -7 0 -6 7 -8 15 -4 8 3 15 1 15 -4 0 -6 5 -10 10
-10 13 0 76 -62 72 -72 -1 -5 2 -8 6 -8 5 0 14 -12 21 -27 11 -23 10 -29 -4
-39 -11 -8 -12 -13 -4 -16 14 -5 18 -78 4 -78 -5 0 -3 -5 5 -10 8 -5 10 -10 4
-10 -6 0 -9 -13 -6 -30 2 -16 0 -30 -4 -30 -5 0 -15 -13 -22 -30 -8 -16 -18
-30 -23 -30 -5 0 -18 -9 -30 -21 -11 -11 -27 -18 -34 -15 -8 3 -15 0 -17 -6
-3 -7 -29 -12 -60 -13 -46 -1 -55 2 -50 15 4 12 2 12 -8 3 -10 -9 -19 -8 -39
5 -39 25 -61 45 -61 56 0 5 -7 14 -16 20 -9 7 -17 24 -17 38 -1 15 -6 26 -11
25 -5 -1 -9 16 -9 38 1 22 -4 46 -11 54 -8 12 -8 13 2 7 8 -5 12 2 12 24 0 17
3 29 8 27 4 -3 8 6 9 20 0 14 7 29 15 34 7 5 10 9 6 9 -4 0 5 13 20 29 15 15
30 26 35 24 4 -2 7 0 7 5 0 9 31 24 57 26 6 1 15 5 19 9 10 9 22 9 28 -2z"/>
<path d="M2980 5645 c-14 -8 -21 -14 -16 -15 5 0 2 -8 -5 -17 -12 -15 -12 -16
5 -10 14 6 16 4 9 -5 -5 -7 -9 -31 -8 -53 0 -22 -4 -43 -10 -47 -6 -5 -6 -8 2
-8 9 0 11 -10 6 -32 -5 -25 -3 -30 8 -24 8 4 5 0 -5 -8 -11 -9 -15 -16 -9 -16
11 0 12 -54 1 -65 -11 -11 3 -36 16 -28 6 3 3 -3 -7 -14 -9 -11 -14 -23 -10
-27 12 -12 13 -46 1 -46 -9 0 -9 -3 0 -12 9 -9 9 -15 -1 -27 -8 -10 -8 -12 -1
-8 15 9 14 -45 -1 -55 -7 -5 -7 -8 0 -8 13 0 13 -80 0 -99 -5 -9 -4 -12 2 -8
7 4 10 -3 9 -18 0 -14 -5 -25 -10 -25 -5 0 -4 -6 2 -13 6 -7 8 -29 5 -50 -3
-24 -1 -37 7 -37 6 0 9 -3 7 -7 -3 -5 113 -8 258 -8 l263 0 4 35 3 36 -68 1
c-37 1 -72 5 -77 8 -6 3 -10 -2 -10 -12 -1 -17 -1 -17 -11 0 -8 14 -14 16 -25
6 -11 -9 -14 -8 -14 2 0 11 -2 11 -9 0 -8 -12 -12 -12 -25 -2 -9 8 -16 9 -16
3 0 -10 -50 -10 -68 1 -5 4 -12 2 -14 -4 -2 -7 -12 -7 -31 0 -23 9 -27 8 -27
-6 0 -15 -2 -15 -13 2 -10 13 -16 15 -21 6 -11 -17 -37 6 -29 26 5 12 3 14 -8
8 -11 -6 -12 -5 -1 6 6 7 12 17 12 22 0 4 -6 5 -12 1 -10 -6 -10 -5 -1 8 7 8
10 18 6 21 -3 4 0 7 7 7 9 0 8 4 -4 13 -16 12 -17 16 -5 36 12 18 12 23 -1 31
-10 6 -11 10 -2 10 6 0 12 7 12 16 0 9 -5 12 -12 8 -10 -6 -10 -4 0 7 14 15
17 43 3 35 -5 -4 -4 5 2 19 l12 24 186 -2 185 -2 2 33 c2 18 -2 32 -8 32 -6 0
-8 6 -4 13 5 8 2 8 -9 -2 -14 -11 -20 -11 -34 0 -13 11 -15 11 -9 1 6 -10 1
-13 -20 -11 -16 2 -35 8 -43 14 -11 7 -13 7 -8 -1 4 -7 -2 -11 -18 -11 -16 0
-22 4 -18 11 4 6 -1 5 -10 -3 -14 -11 -20 -11 -34 0 -13 11 -15 11 -9 1 6 -10
1 -13 -20 -11 -16 2 -35 8 -43 14 -11 7 -13 7 -8 -1 4 -7 -2 -11 -18 -11 -15
0 -22 4 -18 11 3 6 -4 2 -16 -9 -16 -14 -22 -15 -19 -5 2 8 -3 14 -10 12 -8
-1 -11 2 -7 8 4 6 1 18 -7 27 -9 12 -9 15 0 9 8 -5 11 -1 8 16 -2 13 2 29 8
37 8 11 8 13 -1 8 -6 -4 -14 -3 -18 3 -3 5 2 10 12 10 13 0 15 3 5 8 -7 5 -10
16 -6 25 4 11 1 17 -7 17 -8 0 -5 6 7 16 10 8 13 12 5 8 -10 -5 -11 -1 -6 16
4 13 3 20 -2 17 -5 -4 -10 0 -10 8 0 8 5 11 10 8 6 -4 8 4 4 18 l-6 24 219 -1
c121 0 220 4 220 8 0 5 4 7 9 3 11 -6 9 34 -2 52 -7 11 -48 10 -68 -3 -7 -4
-10 -3 -6 2 9 16 -67 10 -81 -6 -11 -13 -11 -13 -7 1 4 11 0 15 -14 14 -11 -1
-24 -4 -27 -8 -4 -3 -15 -2 -25 4 -14 7 -19 6 -19 -2 0 -9 -3 -9 -14 0 -10 9
-15 9 -18 1 -2 -8 -11 -8 -31 -1 -23 9 -27 8 -27 -7 -1 -16 -1 -16 -11 1 -8
14 -14 15 -31 6 -11 -6 -18 -7 -15 -2 6 10 -56 8 -74 -2 -8 -5 -10 -4 -5 3 10
16 -3 14 -34 -3z m504 -3 c3 -5 -1 -9 -9 -9 -8 0 -12 4 -9 9 3 4 7 8 9 8 2 0
6 -4 9 -8z"/>
<path d="M4991 5644 c7 -8 6 -14 -2 -20 -8 -5 -10 -3 -4 7 5 8 4 10 0 6 -13
-11 -15 -37 -3 -37 7 0 7 -4 0 -12 -15 -19 -15 -30 0 -40 10 -8 10 -11 0 -15
-6 -2 -9 -10 -5 -16 4 -7 9 -21 10 -32 3 -16 1 -17 -7 -5 -12 19 -13 0 -1 -19
6 -9 6 -22 0 -33 -7 -13 -6 -18 2 -18 9 0 9 -3 0 -14 -8 -9 -8 -16 -2 -20 10
-7 8 -57 -4 -76 -3 -5 -1 -10 6 -10 8 0 9 -4 0 -13 -7 -10 -7 -17 0 -24 8 -8
8 -17 0 -32 -8 -15 -9 -21 -1 -21 6 0 8 -5 3 -12 -12 -20 -12 -38 -1 -38 6 0
5 -6 -2 -15 -9 -11 -9 -15 -1 -15 7 0 9 -5 4 -12 -12 -21 -12 -38 0 -38 7 0 5
-5 -3 -10 -12 -8 -12 -10 -1 -10 10 0 11 -3 2 -14 -8 -9 -8 -16 -2 -20 10 -7
8 -57 -4 -76 -3 -5 -1 -10 6 -10 8 0 7 -5 -2 -17 -11 -13 -11 -17 -1 -21 10
-3 10 -7 0 -20 -10 -12 -10 -14 0 -8 6 4 12 3 12 -3 0 -13 45 -7 65 9 12 10
13 15 3 28 -11 12 -10 16 0 20 10 3 8 8 -5 19 -10 8 -13 12 -6 9 8 -5 11 16 8
79 -1 47 1 85 5 85 4 0 5 10 3 23 -4 20 -1 22 31 21 19 -1 42 -6 50 -13 12
-10 16 -9 25 6 9 16 12 16 21 3 8 -12 10 -12 10 -1 0 11 3 11 15 1 8 -7 15 -8
15 -3 0 12 53 11 62 -2 5 -7 8 -6 8 0 0 6 12 10 28 9 15 -1 34 2 43 7 10 5 21
3 29 -4 7 -7 10 -7 7 -1 -6 10 15 33 38 44 6 3 8 10 7 15 -2 6 0 7 4 2 9 -9
44 21 44 38 0 7 7 18 15 25 9 7 14 19 11 27 -3 7 0 13 7 13 8 0 6 4 -3 10 -8
5 -10 10 -4 10 7 0 15 7 18 16 4 10 2 13 -7 8 -9 -6 -9 -4 1 8 9 11 10 18 2
23 -6 4 -7 12 -2 21 9 16 -8 84 -20 84 -5 0 -8 9 -8 20 0 11 -4 20 -10 20 -5
0 -10 7 -10 16 0 8 -4 12 -10 9 -5 -3 -10 0 -10 8 0 7 -11 20 -25 27 -13 7
-23 16 -20 19 2 4 -6 8 -18 8 -12 1 -23 7 -25 12 -2 5 -9 8 -17 5 -7 -3 -23
-1 -34 6 -18 9 -21 8 -21 -7 -1 -17 -1 -17 -11 0 -8 13 -14 15 -30 7 -10 -6
-19 -7 -19 -2 0 4 -9 8 -20 8 -14 0 -19 -5 -15 -16 3 -9 -1 -8 -10 4 -9 12
-15 15 -15 7 0 -11 -3 -11 -17 0 -11 10 -14 10 -9 2 4 -7 2 -13 -3 -13 -6 0
-11 6 -11 13 0 9 -3 8 -9 -2 -7 -11 -9 -11 -14 0 -5 12 -6 12 -6 0 -1 -10 -4
-11 -15 -2 -10 8 -16 9 -21 1 -3 -5 -11 -10 -16 -10 -6 0 -8 4 -4 9 6 10 -27
7 -45 -4 -6 -3 -10 -2 -10 3 0 5 -7 9 -15 9 -11 0 -12 -4 -4 -13z m336 -69 c5
-4 2 -5 -6 0 -10 6 -12 4 -6 -5 6 -10 11 -9 22 5 11 16 13 17 13 2 0 -11 7
-15 21 -12 12 3 19 2 16 -2 -4 -3 8 -18 25 -33 20 -18 28 -32 23 -40 -5 -8 -4
-11 2 -7 13 8 20 -16 19 -60 -1 -17 2 -29 7 -26 9 5 9 -11 0 -20 -3 -4 -8 -19
-9 -34 -2 -14 -7 -29 -11 -32 -4 -3 -15 -19 -23 -36 -9 -16 -21 -31 -28 -31
-7 -1 -17 -2 -23 -3 -5 0 -8 -5 -5 -9 3 -5 -11 -8 -30 -7 -19 1 -34 -3 -34 -9
0 -6 -5 -4 -10 4 -9 13 -11 13 -20 0 -8 -12 -10 -12 -10 -1 0 10 -3 11 -14 2
-11 -9 -16 -9 -21 0 -6 8 -10 7 -16 -2 -7 -11 -9 -11 -9 1 0 13 -1 13 -10 0
-8 -12 -10 -12 -10 -1 0 10 -3 11 -13 2 -10 -8 -17 -7 -25 1 -9 9 -12 9 -12 0
0 -10 -5 -10 -21 -1 -12 6 -19 7 -16 2 4 -5 0 -10 -8 -10 -8 0 -12 4 -9 9 5 8
-11 12 -30 9 -5 -1 -1 10 9 25 17 26 17 27 0 20 -16 -6 -16 -5 -1 18 11 18 13
27 4 32 -7 5 -8 3 -3 -6 6 -9 4 -11 -4 -5 -10 6 -10 11 2 23 12 12 13 19 4 35
-9 15 -9 21 1 24 10 4 8 9 -5 20 -10 8 -13 12 -7 9 14 -7 15 114 2 131 -7 9
-4 15 10 20 28 11 260 9 269 -2z"/>
<path d="M6196 5445 c-3 -8 -13 -15 -22 -15 -9 0 -29 -9 -45 -21 -16 -11 -34
-17 -39 -14 -6 4 -9 1 -8 -7 2 -7 -3 -12 -10 -10 -8 1 -11 -2 -8 -7 4 -5 -8
-23 -25 -40 -16 -17 -27 -35 -24 -41 3 -6 -1 -13 -9 -16 -9 -3 -13 -10 -11
-15 3 -5 -2 -23 -11 -41 -16 -32 -16 -32 1 -18 17 14 17 14 1 -17 -12 -25 -13
-33 -4 -33 10 0 10 -2 -1 -9 -9 -6 -10 -11 -2 -15 6 -4 8 -12 5 -18 -4 -6 0
-14 7 -19 11 -7 11 -9 1 -9 -10 0 -10 -5 -1 -22 7 -13 13 -25 13 -28 1 -3 5
-4 9 -2 5 1 6 -7 2 -18 -4 -12 -2 -20 5 -20 6 0 9 -4 6 -9 -3 -5 1 -11 9 -15
8 -3 15 -13 15 -22 0 -10 3 -15 6 -11 8 8 34 -18 34 -35 0 -10 3 -9 10 2 6 10
10 11 10 3 0 -7 14 -19 30 -28 17 -9 30 -13 30 -9 0 4 6 1 13 -5 8 -6 17 -8
20 -4 4 3 7 2 7 -4 0 -6 9 -9 20 -6 11 3 27 0 35 -7 13 -11 14 -10 9 4 -8 20
0 21 20 0 15 -14 16 -14 16 0 0 12 7 15 25 12 14 -3 31 2 40 10 8 8 17 15 20
14 21 -1 25 1 19 12 -4 6 -3 8 4 5 11 -8 82 56 82 73 0 6 5 8 12 4 6 -4 8 -3
4 4 -3 6 -2 13 4 17 6 4 8 11 5 16 -4 5 -2 9 2 9 5 0 9 10 10 22 1 11 6 24 11
27 5 3 8 15 6 25 -1 11 1 28 7 37 5 11 5 20 0 23 -5 3 -8 24 -7 45 0 22 -3 39
-8 38 -5 -1 -11 12 -13 28 -2 17 -8 32 -14 33 -5 2 -9 10 -9 18 0 8 -5 14 -11
14 -5 0 -8 4 -4 9 3 5 -4 12 -15 16 -11 4 -28 17 -36 31 -9 13 -20 22 -24 19
-5 -3 -15 2 -24 11 -9 8 -25 16 -36 17 -11 1 -20 5 -20 10 0 5 -8 3 -17 -4
-14 -12 -16 -12 -8 0 6 11 4 13 -8 8 -9 -3 -18 -1 -21 6 -3 8 -5 8 -5 1 -1 -6
-12 -9 -26 -6 -17 3 -25 0 -25 -9 -1 -10 -5 -9 -14 4 -12 15 -14 16 -20 2z
m97 -68 c4 3 13 0 22 -7 12 -10 15 -10 16 1 0 10 2 11 6 2 2 -7 11 -13 19 -13
8 0 17 -7 21 -16 5 -13 7 -13 14 -2 6 9 9 7 9 -9 0 -13 3 -22 8 -20 4 1 8 -2
9 -7 0 -5 8 -13 17 -18 9 -5 16 -16 16 -23 0 -8 4 -15 8 -15 10 0 14 -29 15
-118 1 -54 -3 -76 -14 -83 -7 -5 -10 -9 -6 -9 5 0 1 -7 -7 -16 -9 -8 -14 -19
-11 -23 2 -5 -5 -17 -18 -27 l-22 -19 20 25 20 25 -27 -24 c-15 -13 -25 -28
-21 -34 3 -6 1 -7 -5 -3 -6 3 -13 2 -17 -4 -4 -6 -11 -8 -16 -5 -5 4 -9 2 -9
-4 0 -6 -7 -7 -17 -4 -9 4 -14 2 -10 -3 3 -6 -15 -10 -44 -9 -30 0 -54 6 -58
14 -6 9 -10 10 -12 2 -3 -7 -15 -1 -30 13 -15 14 -29 22 -32 20 -3 -3 -11 5
-18 18 -6 12 -15 25 -18 28 -3 3 -13 14 -21 24 -13 18 -13 19 0 12 13 -6 13
-5 0 6 -9 7 -14 21 -12 32 2 10 -2 22 -10 27 -10 7 -10 9 2 9 13 0 13 1 0 10
-13 9 -13 11 0 20 9 6 11 13 5 18 -13 10 -18 35 -5 27 6 -4 10 4 10 19 0 14 6
26 13 27 9 0 9 2 -1 6 -9 3 -7 10 9 24 12 10 19 19 16 19 -3 0 5 11 19 25 14
14 27 25 30 25 3 0 14 8 25 19 11 10 31 17 44 15 14 -1 28 2 31 7 4 6 10 6 18
0 7 -6 16 -8 19 -4z"/>
<path d="M4724 5436 c-15 -16 -14 -139 0 -148 8 -6 8 -8 0 -8 -15 0 -15 -182
0 -192 8 -5 7 -8 -1 -8 -7 0 -13 -7 -13 -15 0 -8 -5 -15 -11 -15 -5 0 -8 -4
-4 -10 8 -13 -95 -112 -111 -106 -7 3 -14 0 -16 -6 -4 -12 -108 -18 -108 -6 0
4 -6 8 -13 8 -19 0 -53 41 -62 76 -5 16 -9 76 -11 133 -2 67 -7 106 -14 111
-9 6 -9 9 0 12 14 4 21 88 7 88 -4 0 -5 5 -1 12 8 13 11 67 4 69 -50 13 -99
-3 -79 -27 9 -11 9 -14 -1 -14 -9 0 -9 -4 1 -17 12 -15 12 -16 -1 -8 -12 6
-13 5 -2 -6 15 -16 16 -39 1 -39 -5 0 -7 5 -3 12 5 7 3 8 -6 3 -11 -7 -10 -10
1 -19 15 -12 19 -50 6 -62 -4 -4 -2 -14 5 -21 9 -11 9 -16 -1 -23 -11 -6 -11
-9 0 -13 10 -4 10 -6 2 -6 -9 -1 -10 -8 -3 -26 6 -17 6 -25 -1 -25 -6 0 -7 -6
-1 -16 5 -9 7 -26 4 -37 -4 -15 -2 -18 9 -12 11 7 12 6 2 -6 -17 -21 -17 -22
-4 -46 9 -18 9 -23 -1 -23 -10 0 -10 -3 1 -9 8 -5 11 -16 8 -26 -4 -9 -3 -13
2 -10 5 3 13 -5 17 -17 8 -27 61 -78 79 -78 8 0 21 -7 29 -16 15 -14 16 -14
16 2 0 13 3 15 11 7 6 -6 25 -7 50 -3 21 4 39 5 39 2 0 -2 7 1 15 8 8 7 15 9
15 4 0 -5 4 -4 8 1 4 6 18 16 32 23 52 26 75 42 62 42 -10 0 -10 3 0 14 7 8
18 13 23 13 6 -1 8 7 7 18 -2 11 0 17 4 12 12 -11 12 -51 0 -59 -8 -5 -7 -8 2
-8 6 0 12 -8 12 -19 0 -33 41 -54 79 -40 19 8 21 12 11 24 -9 11 -9 15 -1 15
7 0 9 5 6 10 -4 6 -12 7 -18 4 -7 -4 -9 -4 -5 1 4 4 3 14 -3 21 -6 7 -10 37
-9 66 1 65 1 64 -2 111 -2 20 1 37 6 37 6 0 5 5 -2 12 -17 17 -15 28 6 21 14
-5 13 -3 -3 10 -14 12 -16 16 -5 17 11 0 11 3 2 12 -16 16 -15 31 1 22 8 -5 8
-2 -2 9 -11 14 -11 17 0 17 10 0 10 3 1 12 -19 19 -14 32 6 17 14 -11 13 -10
-2 9 -14 16 -15 22 -6 22 11 0 11 3 2 12 -16 16 -15 31 1 22 9 -6 9 -5 0 7
-10 12 -10 18 -1 27 8 8 9 12 1 12 -7 0 -9 9 -5 23 5 19 3 20 -10 9 -11 -9
-18 -10 -23 -2 -8 13 -17 12 -31 -4z"/>
<path d="M5665 5440 c-8 -13 -9 -159 -2 -167 3 -3 2 -15 -3 -27 -4 -13 -4 -29
1 -39 6 -9 6 -17 2 -17 -9 0 -7 -165 2 -180 3 -5 2 -10 -2 -10 -9 0 -6 -112 2
-138 4 -11 43 -11 62 1 5 3 8 89 8 191 -1 136 2 185 11 182 7 -3 10 5 8 19 -1
16 4 26 15 30 10 3 23 16 30 29 12 21 72 49 111 50 23 1 48 29 38 43 -5 7 -4
13 4 16 8 4 7 6 -4 6 -10 1 -18 5 -18 11 0 6 -9 6 -25 0 -14 -5 -25 -7 -25 -4
0 4 -11 -1 -25 -10 -14 -9 -25 -14 -25 -12 0 3 -12 -7 -27 -22 -15 -15 -27
-30 -25 -34 1 -5 -4 -7 -10 -5 -7 1 -12 -3 -11 -9 1 -5 -7 -16 -19 -23 -16
-10 -18 -10 -12 0 22 36 -1 130 -28 113 -4 -3 -8 0 -8 5 0 14 -17 14 -25 1z"/>
<path d="M7844 4667 c-8 -4 -19 -5 -24 -2 -6 3 -10 1 -10 -4 0 -6 -12 -11 -26
-11 -14 0 -23 -4 -19 -10 3 -6 -5 -10 -19 -10 -13 0 -45 -9 -71 -20 -26 -11
-51 -18 -56 -14 -5 3 -9 -1 -9 -9 0 -10 -7 -13 -20 -10 -12 3 -20 0 -20 -6 0
-7 -5 -9 -10 -6 -6 4 -17 1 -25 -5 -8 -6 -19 -9 -25 -5 -5 3 -10 1 -10 -5 0
-6 -5 -8 -11 -4 -6 3 -14 2 -18 -4 -4 -7 -18 -13 -31 -14 -14 -2 -31 -9 -38
-16 -8 -7 -18 -10 -23 -7 -5 4 -9 2 -9 -4 0 -5 -14 -12 -30 -16 -17 -4 -28
-11 -24 -16 3 -5 0 -9 -5 -9 -20 0 -26 -2 -38 -12 -7 -5 -18 -6 -24 -2 -7 4
-9 3 -5 -4 8 -13 -28 -35 -39 -24 -5 4 -5 1 -1 -6 4 -7 0 -15 -11 -19 -10 -4
-26 -15 -35 -26 -10 -11 -18 -17 -18 -13 0 4 -13 -7 -30 -24 -16 -17 -30 -35
-30 -40 0 -5 -7 -7 -15 -4 -9 4 -15 1 -15 -8 0 -7 -9 -19 -21 -26 -12 -7 -19
-16 -16 -19 3 -3 -4 -15 -17 -27 -12 -11 -25 -29 -29 -38 -3 -10 -11 -18 -18
-18 -6 0 -8 -7 -5 -16 3 -8 2 -13 -2 -10 -7 4 -45 -48 -47 -64 0 -3 -3 -4 -6
-3 -3 1 -6 -3 -7 -10 -7 -49 -10 -59 -18 -65 -15 -11 -35 -62 -29 -73 4 -5 1
-9 -5 -9 -6 0 -8 -4 -5 -10 3 -5 2 -10 -2 -10 -5 0 -10 -14 -11 -32 -2 -18 -6
-35 -10 -38 -4 -3 -8 -16 -9 -30 -2 -28 -11 -78 -18 -97 -2 -7 0 -13 6 -13 6
0 7 -6 2 -12 -4 -7 -8 -60 -8 -117 0 -94 2 -105 23 -126 12 -13 35 -24 50 -26
15 -2 832 -4 1815 -4 l1788 1 24 27 c22 27 23 33 20 155 -4 132 -6 149 -18
169 -4 6 -3 14 3 18 7 4 7 12 0 24 -5 10 -6 21 -3 25 3 3 2 6 -4 6 -5 0 -9 16
-8 35 0 23 -3 34 -11 31 -7 -3 -11 6 -9 25 1 16 -1 26 -6 23 -5 -3 -10 3 -11
13 0 10 -2 25 -2 33 -1 8 -7 14 -13 13 -5 -1 -9 9 -7 22 1 14 -3 23 -9 22 -7
-1 -11 8 -11 20 1 13 -2 20 -6 18 -5 -3 -14 8 -22 25 -7 16 -17 30 -21 30 -5
0 -5 5 -2 10 3 6 -1 13 -9 16 -9 3 -16 11 -16 16 0 6 -8 17 -17 25 -11 8 -12
11 -3 7 8 -4 -2 9 -22 30 -21 21 -38 42 -38 48 0 5 -4 6 -10 3 -9 -6 -14 8
-11 28 0 4 -2 6 -6 6 -20 -3 -34 2 -28 11 3 6 2 10 -3 10 -4 0 -18 9 -30 20
-12 12 -22 19 -22 16 0 -3 -11 5 -24 17 -38 35 -49 42 -83 57 -18 8 -33 18
-33 22 0 5 -9 8 -20 8 -11 0 -20 4 -20 9 0 5 -11 12 -25 15 -14 4 -25 11 -25
16 0 5 -9 7 -20 5 -11 -2 -20 0 -20 6 0 5 -9 9 -20 9 -11 0 -20 4 -20 9 0 6
-9 8 -20 6 -11 -2 -20 1 -20 7 0 5 -7 7 -15 4 -9 -3 -18 1 -22 10 -5 13 -7 13
-14 2 -7 -10 -9 -11 -9 0 0 7 -4 11 -9 7 -5 -3 -12 -1 -16 5 -3 5 -17 10 -31
10 -13 0 -24 5 -24 11 0 5 -4 7 -10 4 -5 -3 -10 -2 -10 4 0 5 -9 8 -20 6 -11
-2 -20 1 -20 6 0 6 -4 7 -10 4 -5 -3 -10 -2 -10 4 0 6 -7 8 -16 4 -9 -3 -20 0
-24 7 -4 7 -19 13 -34 13 -14 0 -23 3 -20 8 3 5 -3 9 -13 10 -10 0 -28 2 -40
5 -12 2 -28 -3 -36 -11 -8 -8 -17 -12 -19 -9 -3 2 -15 -9 -28 -26 -12 -16 -27
-27 -33 -23 -5 3 -7 2 -4 -4 6 -9 -26 -43 -41 -43 -4 0 -16 -11 -26 -25 -11
-14 -26 -23 -33 -21 -8 4 -11 1 -8 -5 4 -6 -2 -13 -14 -16 -12 -3 -21 -12 -21
-19 0 -8 -3 -14 -7 -13 -18 3 -52 -14 -47 -22 3 -5 -4 -9 -15 -9 -11 0 -23 -5
-26 -10 -4 -6 -10 -8 -15 -5 -4 3 -10 -2 -14 -10 -3 -8 -16 -15 -30 -15 -14 0
-28 -5 -32 -11 -3 -6 -15 -9 -25 -6 -10 3 -18 2 -17 -2 2 -19 -3 -24 -12 -11
-7 11 -10 11 -10 2 0 -7 -4 -10 -10 -7 -5 3 -10 2 -10 -2 0 -9 -9 -11 -77 -15
-22 -2 -39 -7 -36 -12 3 -5 0 -6 -8 -4 -8 3 -24 1 -36 -3 -13 -5 -23 -5 -23
-1 0 5 -22 6 -50 2 -27 -4 -50 -3 -50 1 0 4 -14 4 -30 -1 -22 -6 -28 -5 -24 2
5 7 1 9 -9 5 -10 -3 -17 -2 -17 3 0 5 -7 7 -15 4 -8 -4 -23 0 -32 7 -14 12
-16 12 -9 -1 5 -10 3 -9 -6 2 -13 15 -15 15 -26 0 -11 -16 -11 -16 -6 0 4 13
1 15 -15 11 -13 -3 -21 -1 -21 6 0 7 -5 9 -10 6 -6 -4 -26 3 -45 14 -23 13
-35 16 -35 8 -1 -7 -6 -5 -14 6 -7 9 -21 17 -30 17 -9 0 -16 8 -16 18 0 14 -2
15 -10 2 -7 -11 -10 -11 -10 -2 0 7 -6 12 -12 10 -7 -1 -24 7 -38 19 -14 12
-28 22 -32 23 -14 0 -45 35 -40 44 3 5 1 6 -5 3 -5 -3 -24 7 -41 23 -18 16
-32 26 -32 23 0 -3 -10 7 -22 23 -13 16 -22 32 -21 36 2 4 -4 5 -11 2 -9 -3
-17 3 -21 15 -3 12 -11 19 -16 16 -5 -4 -9 -3 -9 2 0 10 -47 10 -66 0z"/>
</g>
</svg>
